<svg width="1200" height="1200" xmlns="http://www.w3.org/2000/svg" xmlns:xlink="http://www.w3.org/1999/xlink" version="1.1"><g transform="scale(11.61565045758887) translate(1.1534474690755214, 2.0244446595509853)">                        <g fill="#ebf2fe"><path xmlns="http://www.w3.org/2000/svg" d="M88.784,17.114C86.99,10.068,73.708,3.141,50.502,3.141c-23.189,0-36.47,6.918-38.278,13.959  C12.085,17.371,12,17.674,12,18v64c0,0.613,0.282,1.154,0.716,1.521c3.072,6.545,16.094,12.598,37.786,12.598  c21.698,0,34.721-6.056,37.789-12.604C88.721,83.149,89,82.61,89,82v-1.458c0-0.012,0.002-0.023,0.002-0.035  c0-0.007-0.002-0.013-0.002-0.02V59.679c0-0.012,0.002-0.023,0.002-0.035c0-0.007-0.002-0.013-0.002-0.02V39.234  c0-0.012,0.002-0.023,0.002-0.035c0-0.007-0.002-0.013-0.002-0.02V18.789c0-0.012,0.002-0.023,0.002-0.035S89,18.73,89,18.718V18  C89,17.68,88.918,17.382,88.784,17.114z M85,59.668c-0.042,5.486-14.197,11.588-34.498,11.588c-20.331,0-34.5-6.12-34.5-11.613  c0-0.007-0.002-0.013-0.002-0.02V46.258c5.703,4.795,17.412,8.553,34.502,8.553c17.087,0,28.793-3.757,34.498-8.55V59.668z   M85,39.223c-0.042,5.486-14.197,11.588-34.498,11.588c-20.331,0-34.5-6.12-34.5-11.613c0-0.007-0.002-0.013-0.002-0.02V25.813  c5.703,4.795,17.412,8.553,34.502,8.553c17.087,0,28.793-3.756,34.498-8.55V39.223z M50.502,7.141  c20.301,0,34.456,6.102,34.498,11.588v0.049c-0.042,5.486-14.197,11.588-34.498,11.588c-20.331,0-34.5-6.12-34.5-11.612  S30.171,7.141,50.502,7.141z M50.502,92.119c-20.331,0-34.5-6.12-34.5-11.612c0-0.007-0.002-0.013-0.002-0.02V66.704  c5.703,4.795,17.412,8.553,34.502,8.553c17.087,0,28.793-3.757,34.498-8.55v13.824C84.958,86.018,70.803,92.119,50.502,92.119z"/></g>        </g></svg>