<svg xmlns="http://www.w3.org/2000/svg" viewBox="0 0 128 128">
  <g fill="#003545">
    <rect x="10" y="33" width="26" height="10" rx="4"/>
    <circle cx="44" cy="38" r="12"/>
    <path d="M52 46 C58 58 62 68 58 76 C56 84 50 88 44 88 C38 88 30 84 26 74 C22 62 28 52 40 48 Z"/>
  </g>
  <path d="M46 88 C60 92 64 104 56 112 C48 120 38 118 36 110 C34 103 40 99 46 101" fill="none" stroke="#003545" stroke-width="9" stroke-linecap="round"/>
  <path d="M36 26 C38 17 48 17 51 24" fill="none" stroke="#003545" stroke-width="7" stroke-linecap="round"/>
</svg>